REM DIRINDEX 1\2,1\3,1\4,1\5,1\6
REM DIRNAME folder01,folder02,folder03,folder04,folder05,folder06
TITLE ""
FILE "Disc6Track26.mp3" MP3
  TRACK 01 AUDIO
    TITLE "2:cjc030_11218"
    INDEX 01 00:00:00
  TRACK 02 AUDIO
    TITLE "0:"
    INDEX 01 00:03:33
  TRACK 03 AUDIO
    TITLE "3:cjc030_11219"
    INDEX 01 00:04:05
  TRACK 04 AUDIO
    TITLE "0:"
    INDEX 01 00:05:14
  TRACK 05 AUDIO
    TITLE "4:cjc030_11220"
    INDEX 01 00:05:26
  TRACK 06 AUDIO
    TITLE "0:"
    INDEX 01 00:08:05
  TRACK 07 AUDIO
    TITLE "5:cjc030_11221"
    INDEX 01 00:08:11
  TRACK 08 AUDIO
    TITLE "0:"
    INDEX 01 00:09:26
  TRACK 09 AUDIO
    TITLE "6:cjc030_11222"
    INDEX 01 00:09:36
  TRACK 10 AUDIO
    TITLE "0:"
    INDEX 01 00:11:56
  TRACK 11 AUDIO
    TITLE "3:cjc030_11223"
    INDEX 01 00:12:28
  TRACK 12 AUDIO
    TITLE "0:"
    INDEX 01 00:13:47
  TRACK 13 AUDIO
    TITLE "4:cjc030_11224"
    INDEX 01 00:13:59
  TRACK 14 AUDIO
    TITLE "0:"
    INDEX 01 00:16:22
  TRACK 15 AUDIO
    TITLE "5:cjc030_11225"
    INDEX 01 00:16:32
  TRACK 16 AUDIO
    TITLE "0:"
    INDEX 01 00:17:53
  TRACK 17 AUDIO
    TITLE "6:cjc030_11226"
    INDEX 01 00:17:63
  TRACK 18 AUDIO
    TITLE "0:"
    INDEX 01 00:19:54
  TRACK 19 AUDIO
    TITLE "3:cjc030_11227"
    INDEX 01 00:20:26
  TRACK 20 AUDIO
    TITLE "0:"
    INDEX 01 00:21:35
  TRACK 21 AUDIO
    TITLE "4:cjc030_11228"
    INDEX 01 00:21:47
  TRACK 22 AUDIO
    TITLE "0:"
    INDEX 01 00:24:24
  TRACK 23 AUDIO
    TITLE "5:cjc030_11229"
    INDEX 01 00:24:29
  TRACK 24 AUDIO
    TITLE "0:"
    INDEX 01 00:25:45
  TRACK 25 AUDIO
    TITLE "6:cjc030_11230"
    INDEX 01 00:25:52
  TRACK 26 AUDIO
    TITLE "0:"
    INDEX 01 00:30:26
  TRACK 27 AUDIO
    TITLE "3:cjc030_11231"
    INDEX 01 00:31:00
  TRACK 28 AUDIO
    TITLE "0:"
    INDEX 01 00:32:25
  TRACK 29 AUDIO
    TITLE "4:cjc030_11232"
    INDEX 01 00:32:35
  TRACK 30 AUDIO
    TITLE "0:"
    INDEX 01 00:33:56
  TRACK 31 AUDIO
    TITLE "5:cjc030_11233"
    INDEX 01 00:33:62
  TRACK 32 AUDIO
    TITLE "0:"
    INDEX 01 00:35:15
  TRACK 33 AUDIO
    TITLE "6:cjc030_11234"
    INDEX 01 00:35:27
  TRACK 34 AUDIO
    TITLE "0:"
    INDEX 01 00:38:35
  TRACK 35 AUDIO
    TITLE "3:cjc030_11235"
    INDEX 01 00:39:07
  TRACK 36 AUDIO
    TITLE "0:"
    INDEX 01 00:40:21
  TRACK 37 AUDIO
    TITLE "4:cjc030_11236"
    INDEX 01 00:40:30
  TRACK 38 AUDIO
    TITLE "0:"
    INDEX 01 00:41:26
  TRACK 39 AUDIO
    TITLE "5:cjc030_11237"
    INDEX 01 00:41:36
  TRACK 40 AUDIO
    TITLE "0:"
    INDEX 01 00:42:47
  TRACK 41 AUDIO
    TITLE "6:cjc030_11238"
    INDEX 01 00:42:61
  TRACK 42 AUDIO
    TITLE "0:"
    INDEX 01 00:48:02
  TRACK 43 AUDIO
    TITLE "3:cjc030_11239"
    INDEX 01 00:48:48
  TRACK 44 AUDIO
    TITLE "0:"
    INDEX 01 00:49:37
  TRACK 45 AUDIO
    TITLE "4:cjc030_11240"
    INDEX 01 00:49:45
  TRACK 46 AUDIO
    TITLE "0:"
    INDEX 01 00:51:32
  TRACK 47 AUDIO
    TITLE "5:cjc030_11241"
    INDEX 01 00:51:38
  TRACK 48 AUDIO
    TITLE "0:"
    INDEX 01 00:52:32
  TRACK 49 AUDIO
    TITLE "6:cjc030_11242"
    INDEX 01 00:52:43
  TRACK 50 AUDIO
    TITLE "0:"
    INDEX 01 00:56:63
  TRACK 51 AUDIO
    TITLE "3:cjc030_11243"
    INDEX 01 00:57:35
  TRACK 52 AUDIO
    TITLE "0:"
    INDEX 01 00:58:38
  TRACK 53 AUDIO
    TITLE "4:cjc030_11244"
    INDEX 01 00:58:48
  TRACK 54 AUDIO
    TITLE "0:"
    INDEX 01 01:00:31
  TRACK 55 AUDIO
    TITLE "5:cjc030_11245"
    INDEX 01 01:00:41
  TRACK 56 AUDIO
    TITLE "0:"
    INDEX 01 01:01:44
  TRACK 57 AUDIO
    TITLE "3:cjc030_11246"
    INDEX 01 01:02:22
  TRACK 58 AUDIO
    TITLE "0:"
    INDEX 01 01:03:20
  TRACK 59 AUDIO
    TITLE "4:cjc030_11247"
    INDEX 01 01:03:29
  TRACK 60 AUDIO
    TITLE "0:"
    INDEX 01 01:04:29
  TRACK 61 AUDIO
    TITLE "5:cjc030_11248"
    INDEX 01 01:04:39
  TRACK 62 AUDIO
    TITLE "0:"
    INDEX 01 01:05:38
  TRACK 63 AUDIO
    TITLE "6:cjc030_11249"
    INDEX 01 01:05:48
  TRACK 64 AUDIO
    TITLE "0:"
    INDEX 01 01:09:12
  TRACK 65 AUDIO
    TITLE "3:cjc030_11250"
    INDEX 01 01:09:59
  TRACK 66 AUDIO
    TITLE "0:"
    INDEX 01 01:10:65
  TRACK 67 AUDIO
    TITLE "4:cjc030_11251"
    INDEX 01 01:11:00
  TRACK 68 AUDIO
    TITLE "0:"
    INDEX 01 01:13:28
  TRACK 69 AUDIO
    TITLE "5:cjc030_11252"
    INDEX 01 01:13:38
  TRACK 70 AUDIO
    TITLE "0:"
    INDEX 01 01:14:41
  TRACK 71 AUDIO
    TITLE "6:cjc030_11253"
    INDEX 01 01:14:53
  TRACK 72 AUDIO
    TITLE "0:"
    INDEX 01 01:20:71
  TRACK 73 AUDIO
    TITLE "3:cjc030_11254"
    INDEX 01 01:21:41
  TRACK 74 AUDIO
    TITLE "0:"
    INDEX 01 01:22:62
  TRACK 75 AUDIO
    TITLE "4:cjc030_11255"
    INDEX 01 01:22:74
  TRACK 76 AUDIO
    TITLE "0:"
    INDEX 01 01:24:04
  TRACK 77 AUDIO
    TITLE "5:cjc030_11256"
    INDEX 01 01:24:14
  TRACK 78 AUDIO
    TITLE "0:"
    INDEX 01 01:25:35
